<?xml version="1.0" encoding="UTF-8"?>
<svg id="Capa_2" data-name="Capa 2" xmlns="http://www.w3.org/2000/svg" viewBox="0 0 153.92 218.85">
  <defs>
    <style>
      .cls-1, .cls-2 {
        fill: #0d0d0d;
      }

      .cls-1, .cls-3 {
        stroke: #f5f3ef;
        stroke-linecap: round;
        stroke-linejoin: round;
        stroke-width: 2px;
      }

      .cls-4 {
        fill: #ff4000;
      }

      .cls-3 {
        fill: none;
      }
    </style>
  </defs>
  <g id="Capa_1-2" data-name="Capa 1">
    <g>
      <path class="cls-3" d="M30.63,17.23l1.09,8.52"/>
      <path class="cls-3" d="M1,41.26l8.04,1.67"/>
      <path class="cls-3" d="M5.89,20.98l5.97,5.89"/>
      <path class="cls-1" d="M13.02,92.27c2.35,6.39,6.02,13.41,9.95,20.03,8.52,14.36,18.23,26.82,18.23,26.82l.15-29.48.03-7.02s-4.86-41.29-15.13-43.49c-10.27-2.2-20.69,12.87-13.23,33.14h0Z"/>
      <path class="cls-2" d="M19.05,46.82s8.21.52,8.95,11.93c-1.69.53-3.18.54-4.39.31,0,0-.39.45-.95,1.38-1.25,2.13-3.37,6.74-3.7,14.25-.08,1.66-.07,3.48.07,5.43.9,13.56,8.25,21.37,16.24,40.62.25.63.52,1.27.78,1.92.38.93.75,1.89,1.13,2.88,8.68,22.85,17.32,91.37,21.67,92.3,3.88.83,3.51-62.8,3.38-76.5-.02-1.65-.03-2.57-.03-2.57,0,0,.05.17.13.47.21.77.67,2.32,1.19,3.68.5,1.3,1.06,2.42,1.53,2.52.72.15,4.78-13.79,7.44-29.72,1.57-9.46,2.66-19.61,2.27-27.93-1.07-22.33-17.85-30.97-17.85-30.97.26-1.34.3-2.77.21-4.2-.36-5.42-2.71-10.77-2.71-10.77,9.82-7.08,10.79-17.8,10.79-17.8-1.19,6.15-10.23,7.57-10.23,7.57,15.49-14.61,5.96-30.64,5.96-30.64.18,29.77-14.39,28.98-29.43,31.01-15.04,2.03-12.44,14.81-12.44,14.81Z"/>
      <path class="cls-4" d="M19.4,46.59s8.09.51,8.82,11.77c-1.68.52-3.13.53-4.33.3,0,0-.38.45-.93,1.36,0,0,2.74,9.91,17.38,10.46s16.38-14.02,16.38-14.02c0,0-.37-1.81.2-4.14-.36-5.34-2.67-10.62-2.67-10.62,9.68-6.98,10.64-17.54,10.64-17.54-1.18,6.07-10.09,7.46-10.09,7.46,15.28-14.4,5.88-30.21,5.88-30.21.17,29.35-14.19,28.57-29.02,30.57-14.83,2-12.27,14.61-12.27,14.61h0Z"/>
      <path class="cls-3" d="M62.2,138.77s1.51-13.44,2.13-26.43c.61-12.99-10.04-34.29-7.63-46.69"/>
      <path class="cls-3" d="M19.05,46.82s8.21.52,8.95,11.93c-1.7.53-3.18.54-4.39.31,0,0-.39.45-.95,1.38-1.54,2.6-4.35,8.92-3.64,19.68.98,14.63,9.46,22.57,18.14,45.42,8.69,22.84,17.32,91.37,21.67,92.3,3.89.83,3.51-62.8,3.38-76.5-.01-1.65-.02-2.57-.02-2.57,0,0,.05.17.13.48.42,1.49,1.77,6,2.73,6.2.72.16,4.77-13.79,7.43-29.72,1.58-9.46,2.66-19.61,2.27-27.93-1.07-22.34-17.85-30.97-17.85-30.97.27-1.34.31-2.77.21-4.2-.36-5.42-2.71-10.76-2.71-10.76,9.82-7.08,10.79-17.8,10.79-17.8-1.2,6.16-10.23,7.57-10.23,7.57,15.5-14.61,5.96-30.64,5.96-30.64.17,29.77-14.39,28.98-29.43,31.01-15.04,2.03-12.44,14.81-12.44,14.81h0Z"/>
      <path class="cls-1" d="M15.32,51.63c-.6,4.25,4.02,7.19,4.15,7.27-.04-.05-.47-.78.36-1.64,0,0,1.37,1.35,3.77,1.8,1.21.24,2.69.23,4.39-.31-.74-11.41-8.95-11.93-8.95-11.93,0,0-3.21,1.25-3.72,4.81Z"/>
      <path class="cls-3" d="M26.22,53.55c-.78,2.15-2.54,1.62-5.08,2.84-.61.3-1.03.59-1.3.87"/>
      <path class="cls-2" d="M32.48,43.06c-1.13.43-1.62,1.64-1.09,2.71.52,1.07,1.86,1.59,2.99,1.16,1.12-.43,1.62-1.64,1.09-2.71-.52-1.07-1.86-1.59-2.99-1.16Z"/>
      <path class="cls-2" d="M44.74,59.63c3.13-.66,4.82-4.05,3.77-7.57-1.05-3.53-4.44-5.85-7.58-5.2-3.14.66-4.82,4.05-3.77,7.57,1.05,3.53,4.45,5.85,7.58,5.2Z"/>
      <path class="cls-1" d="M31.91,123.75s6.63,9.29,23.74,13.6c9.09,2.29,7.51,14.28,13.82,23.8,15.71,23.66,40.67,29.75,60.12,29.75h14.26c5.01,0,9.07-4.26,9.07-9.52v-37.53c0-4.29-2.76-8.01-6.7-9.13-6.06-1.73-14.86-5.76-20.36-15.05-9.07-15.3-15.52-15.66-15.52-15.66,0,0-2.95-5.25-15.92-2.02,0,0-19.76-5.09-26.25-6.79-6.48-1.7-11.67,3.91-11.34,10.54,0,0-9.42,1.5-19.49,3.57-9.4,1.92-13.13,14.02-5.43,14.45h0Z"/>
      <path class="cls-3" d="M94.43,101.99s-18.85,7.39-22.43,9.6c-3.58,2.21-7.31,6.46-3.5,14.87,3.81,8.41,10.54,21.42,13.21,25.41,2.67,3.99,13.29,3.32,10.77-8.42"/>
      <path class="cls-3" d="M110.34,104.01s-15.89,4.18-22.96,6.23c-7.83,2.27-10.14,6.16-7.54,12.66,3.14,7.87,6.96,14.71,8.42,17.34,1.46,2.63,4.78,4.71,8.18,2.65,3.41-2.06,5.35-8.26-.65-18.88l9-2.63s-6.19,15.14-2.59,29.32c1.86,7.36,6.64,14.13,14.9,19.18"/>
      <path class="cls-3" d="M82.69,152.9c1.37-.32,3.29-1.57,3.69-3.02.48-1.74.02-3.65-.87-5.2-.94-1.66-2.39-3.03-4.12-3.67s-3.76-.49-5.31.57c.01.12.02.24.04.36"/>
      <path class="cls-3" d="M91.9,143.43c.86-.14,1.97-.85,2.38-1.65s.53-1.72.55-2.63c.04-1.75-.29-3.56-1.16-5.06-.87-1.5-2.31-2.68-3.96-2.98-1.81-.33-3.64.38-5.36,1.09"/>
      <path class="cls-2" d="M70.8,131.48c1.83,7.48-1.74,9.86-4.65,10.71-2.92.86-6.97-.85-8.1-7.64-1.13-6.8-1.22-28.73-1.22-28.73,0,0-34.17,1.53-41.79,3.57-7.61,2.04-7.68,9.27-4.22,12.06,5.91,4.77,39.27,2.91,46.41,3.08"/>
      <path class="cls-3" d="M70.8,131.48c1.83,7.48-1.74,9.86-4.65,10.71-2.92.86-6.97-.85-8.1-7.64-1.13-6.8-1.22-28.73-1.22-28.73,0,0-34.17,1.53-41.79,3.57-7.61,2.04-7.68,9.27-4.22,12.06,5.91,4.77,39.27,2.91,46.41,3.08"/>
      <path class="cls-3" d="M11.71,111.03c-.44.58-.52,1.41-.33,2.12.2.72.65,1.33,1.17,1.84,1.42,1.38,3.39,1.99,5.33,2.16,1.71.15,3.48-.01,5.05-.74,1.57-.73,2.93-2.06,3.5-3.76.57-1.7.75-3.58-.48-4.84"/>
      <path class="cls-3" d="M59.42,138.45c4.61,0,5.53-4.15,5.76-5.15.63-2.78.25-5.85-1.27-8.24-1.51-2.38-4.19-3.97-6.92-3.83"/>
      <path class="cls-1" d="M33.52,118.01c-1.07,0-1.94-3.52-1.94-4.64v-6.96c0-1.12.87-2.04,1.94-2.04s1.94.92,1.94,2.04v6.96c0,1.12-.87,4.64-1.94,4.64Z"/>
      <path class="cls-1" d="M37.54,118.01c-1.07,0-1.94-3.52-1.94-4.64v-6.96c0-1.12.87-2.04,1.94-2.04s1.94.92,1.94,2.04v6.96c0,1.12-.87,4.64-1.94,4.64Z"/>
      <path class="cls-1" d="M45.98,118.01c-1.07,0-1.95-3.52-1.95-4.64v-6.96c0-1.12.87-2.04,1.95-2.04s1.94.92,1.94,2.04v6.96c0,1.12-.87,4.64-1.94,4.64Z"/>
      <path class="cls-1" d="M50,118.01c-1.07,0-1.94-3.52-1.94-4.64v-6.96c0-1.12.87-2.04,1.94-2.04s1.95.92,1.95,2.04v6.96c0,1.12-.87,4.64-1.95,4.64Z"/>
    </g>
  </g>
</svg>