<?xml version="1.0" encoding="UTF-8"?>
<svg id="Capa_2" data-name="Capa 2" xmlns="http://www.w3.org/2000/svg" viewBox="0 0 192.01 231.97">
  <defs>
    <style>
      .cls-1, .cls-2 {
        fill: #0d0d0d;
      }

      .cls-1, .cls-3, .cls-4 {
        stroke: #f5f3ef;
        stroke-width: 2px;
      }

      .cls-1, .cls-4 {
        stroke-linecap: round;
        stroke-linejoin: round;
      }

      .cls-3 {
        fill: #ff4000;
        stroke-miterlimit: 10;
      }

      .cls-4 {
        fill: none;
      }
    </style>
  </defs>
  <g id="Capa_1-2" data-name="Capa 1">
    <g>
      <path class="cls-1" d="M143.25,59.33l22,62.35-7.27,13.74-21.32-63.84,5.77-14.4.81,2.15Z"/>
      <path class="cls-2" d="M138.53,142.7l24.05-13.49-25.58-72.04-15.87,60.84"/>
      <path class="cls-4" d="M138.53,142.7l24.05-13.49-25.58-72.04-15.87,60.84"/>
      <path class="cls-2" d="M140.91,148.67l19.41-15.74-29.2-75.75-18.25,54.3"/>
      <path class="cls-4" d="M140.91,148.67l19.41-15.74-29.2-75.75-18.25,54.3"/>
      <path class="cls-1" d="M107.72,108.81l12.94-51.63,35.9,73.46-16.7,15.47-32.13-37.3h0Z"/>
      <path class="cls-2" d="M142.15,162.81l11.54-31.6-44.16-72.77-16.18,48.94"/>
      <path class="cls-4" d="M142.15,162.81l11.54-31.6-44.16-72.77-16.18,48.94"/>
      <path class="cls-1" d="M132.17,167l18.4-38.01-59.7-67.5-13.8,44.86,55.1,60.65Z"/>
      <path class="cls-1" d="M156.56,135.41l-84.52-67.92-18.6,55.53,103.13,12.39h0Z"/>
      <path class="cls-2" d="M142.44,57.17l21.46,63.78c.66,2.78-1.41,5.63-5.97,7.05-4.56,1.42-13.95,1.12-22.1-3.91l-30.17,96.54s23.77,8.46,31.58-5.03c0,0,.66-1.05,2.48-6.83,1.81-5.78,25.02-77.22,26.78-82.99.45-1.44.88-3.2-.64-7-2.19-5.4-23.4-61.6-23.4-61.6"/>
      <path class="cls-4" d="M142.44,57.17l21.46,63.78c.66,2.78-1.41,5.63-5.97,7.05-4.56,1.42-13.95,1.12-22.1-3.91l-30.17,96.54s23.77,8.46,31.58-5.03c0,0,.66-1.05,2.48-6.83,1.81-5.78,25.02-77.22,26.78-82.99.45-1.44.88-3.2-.64-7-2.19-5.4-23.4-61.6-23.4-61.6"/>
      <path class="cls-1" d="M54.08,78.58l-32.09,98.46,83.65,43.57,30.17-96.53-81.73-45.5Z"/>
      <path class="cls-1" d="M12.54,138.12l-5.56-24.22c-.6-2.58-.29-3.58-.17-3.83.34-.08.6-.39.63-.75.19,0,.4-.07.55-.2.17-.15.29-.36.31-.58l.27-3.08c.01-.22-.06-.44-.21-.63-.15-.17-.35-.29-.58-.3l-.85-.07c-.42-.03-2.67-.1-4.35,1.83-1.65,1.88-2.01,4.87-1.1,8.85l5.57,24.22c.25,1.14,1.2,2,2.44,2.17h.32c.21,0,.42-.02.63-.07.73-.17,1.36-.61,1.77-1.26.39-.64.52-1.39.35-2.12l-.04.03Z"/>
      <path class="cls-1" d="M43.69,227.89l-.81-3.54c-.09-.36-.34-.66-.7-.85-.37-.19-.81-.22-1.26-.12l-2.38.56c-.9.22-1.51.98-1.34,1.73l.81,3.54c.14.63.58,1.14,1.21,1.46.37.19.78.29,1.21.3.32,0,.65,0,.96-.08.77-.17,1.41-.59,1.85-1.15.44-.56.59-1.22.45-1.85h-.01Z"/>
      <path class="cls-1" d="M26.56,196.08l-12.13-53.25,12.85-3,12.13,53.25c.17.78-.44,1.59-1.39,1.81l-9.42,2.2c-.96.22-1.85-.24-2.04-1.02Z"/>
      <path class="cls-1" d="M33.35,218.1l-4.79-21,9.49-2.22,4.79,21c.19.85-.49,1.73-1.52,1.98l-5.74,1.34c-1.04.24-2.03-.26-2.22-1.1h0Z"/>
      <path class="cls-1" d="M35.95,223.37l-.91-4.03,6.86-1.61.91,4.03c.19.85-.49,1.73-1.52,1.98l-3.13.73c-1.04.24-2.03-.25-2.22-1.1h.01Z"/>
      <path class="cls-1" d="M14.53,142.81s-4.46-19.59-5.69-24.93c-1.22-5.36-3.51-19.35,2.06-20.66h-.1c5.57-1.27,9.57,12.32,10.8,17.67,1.22,5.36,5.69,24.93,5.69,24.93l-12.74,2.98h0Z"/>
      <path class="cls-3" d="M160.99,153.67l1.34,7.76-13.77,14.88-8.51-6,15.98-16.03,4.95-.61Z"/>
      <path class="cls-3" d="M117.93,182.19c1.73,10.05,15.51,16.07,30.79,13.44,15.26-2.63,26.24-12.9,24.51-22.94l-1.34-7.73-54.66,11.83.7,5.41h0Z"/>
      <path class="cls-1" d="M180.68,142.99l-16.28,17.2,1.6,5.78,24.99-5.37-.05-6.36c-.95-4.91-4.79-8.86-10.27-11.25h.02Z"/>
      <path class="cls-1" d="M180.68,142.99l-16.28,17.2,26.6-5.73c-.87-5.03-4.76-9.05-10.32-11.47h0Z"/>
      <path class="cls-3" d="M161.55,153.46c-5.56-2.44-12.83-3.29-20.47-1.97-15.26,2.63-26.24,12.9-24.51,22.95,1.73,10.05,15.52,16.07,30.79,13.44,15.26-2.63,26.24-12.9,24.51-22.94l-26.6,5.73,16.27-17.2h0Z"/>
      <path class="cls-1" d="M94.81,34.67l5.41,6.93c1.68,2.14,12.33-3.44,23.75-12.44,11.44-9,19.34-18.03,17.66-20.15l-5.42-6.93-41.4,32.59Z"/>
      <path class="cls-1" d="M118.09,21.61c11.44-9,19.34-18.02,17.65-20.15-1.68-2.13-12.31,3.44-23.75,12.43-11.44,9-19.34,18.02-17.65,20.15,1.68,2.13,12.32-3.44,23.75-12.43Z"/>
      <path class="cls-4" d="M105.98,30.52l5.45,6.96"/>
      <path class="cls-4" d="M118.31,21.84l5.43,6.95"/>
      <path class="cls-4" d="M129.75,12.04l5.43,6.96"/>
    </g>
  </g>
</svg>