<?xml version="1.0" encoding="UTF-8"?>
<svg id="Capa_2" data-name="Capa 2" xmlns="http://www.w3.org/2000/svg" viewBox="0 0 188.69 192.48">
  <defs>
    <style>
      .cls-1, .cls-2, .cls-3, .cls-4 {
        stroke: #f5f3ef;
        stroke-width: 2px;
      }

      .cls-1, .cls-3 {
        stroke-miterlimit: 10;
      }

      .cls-1, .cls-4 {
        fill: none;
      }

      .cls-2, .cls-5 {
        fill: #0d0d0d;
      }

      .cls-2, .cls-4 {
        stroke-linecap: round;
        stroke-linejoin: round;
      }

      .cls-3 {
        fill: #ff4000;
      }
    </style>
  </defs>
  <g id="Capa_1-2" data-name="Capa 1">
    <g>
      <path class="cls-5" d="M105.11,60.05s-3.22-13.5,5.37-24.89c6.44-8.53,15.42-24.93,17.75-27.32,2.33-2.39,5.53-3.58,14.69-4.58,9.17-1,24.58-5.93,26.07,2.96,1.49,8.89-7.02,14.43-11.91,16.35-4.88,1.92-10.3,3.77-10.3,3.77l-13.56,30.18"/>
      <path class="cls-4" d="M105.11,60.05s-3.22-13.5,5.37-24.89c6.44-8.53,15.42-24.93,17.75-27.32,2.33-2.39,5.53-3.58,14.69-4.58,9.17-1,24.58-5.93,26.07,2.96,1.49,8.89-7.02,14.43-11.91,16.35-4.88,1.92-10.3,3.77-10.3,3.77l-13.56,30.18"/>
      <path class="cls-2" d="M54.47,187.4c4.38,0,7.92-3.55,7.92-7.94s-3.54-7.94-7.92-7.94-7.92,3.55-7.92,7.94,3.55,7.94,7.92,7.94Z"/>
      <path class="cls-4" d="M46.52,112.48c.61-1.92-7.25-6.13-17.55-9.41-10.29-3.27-19.13-4.37-19.75-2.45-.6,1.92,7.25,6.13,17.55,9.41,10.3,3.27,19.14,4.37,19.75,2.45Z"/>
      <path class="cls-2" d="M27.87,118.73c6.71,0,12.15-5.45,12.15-12.17s-5.44-12.17-12.15-12.17-12.15,5.45-12.15,12.17,5.44,12.17,12.15,12.17Z"/>
      <path class="cls-4" d="M9.23,100.64c-.6,1.92,7.25,6.13,17.55,9.41,10.3,3.27,19.14,4.37,19.75,2.45"/>
      <path class="cls-2" d="M11,164.09l-10-1.96,10-1.96-5.69-8.47,8.45,5.7,1.96-10.02,1.96,10.02,8.45-5.7-5.69,8.47,10,1.96-10,1.96,5.69,8.48-8.45-5.7-1.96,10.02-1.96-10.02-8.45,5.7,5.69-8.47Z"/>
      <path class="cls-2" d="M99.22,191.48c-4.37,0-7.59-3.14-9.45-7.11-6.73-14.4-23.5-47.18-25.29-54.66-4.16-17.39,12.26-42.67,21.99-55.19,9.72-12.52,18.74-29.43,34.47-26.44,15.73,2.99,35.61,16.83,35.61,16.83,0,0-.54-25.99,10.7-29.21,9.18-2.63,12.7,5.84,12.7,21.49v68.12c0,31.5-20.41,58.53-20.41,58.53-2.18,4.26-5.71,7.62-10.48,7.62h-49.85Z"/>
      <path class="cls-4" d="M70.06,100.77l29.89-22.94c4.51-3.12,10.37-3.5,15.25-.98l19.41,10.59c4.34,2.24,7.32,6.47,7.95,11.33l2.44,18.73c.45,6.87-2.71,9.79-7.71,10.8-4.75.96-8.81-.99-11.09-6.3l-5.02-14.28-10.88-7.42-15.27,25.74s32.29,4.81,40.91,33.88"/>
      <path class="cls-4" d="M96.44,61.21s7.54-10.57,19.88-5.67c8.83,3.51,23.04,15.06,30.41,21.35,3.05,2.61,4.99,6.29,5.41,10.29l2.31,22.36c.5,11.59-9.91,12.47-9.91,12.47"/>
      <path class="cls-4" d="M156.56,64.93c4.4,4.87,8.24,18.61,8.12,28.39-.12,9.75,1.39,16.93-10.18,19.71"/>
      <path class="cls-4" d="M143.22,103.84s-9.19,1.16-7.87,10.54c1.31,9.38,9.18,7.61,9.18,7.61"/>
      <path class="cls-4" d="M153.38,99.32s-8.35.62-7.03,10.42c1.15,8.63,6.36,7.28,6.36,7.28"/>
      <path class="cls-4" d="M164.12,90.32s-7.56-1.07-7.56,7.59c0,10.21,6.96,8.56,6.96,8.56"/>
      <path class="cls-4" d="M175.51,38.35s-7.2,2-6.05,11c1.15,8.99,9.67,9.08,9.67,9.08"/>
      <path class="cls-3" d="M170.98,41.35c9.23,0,16.71-7.5,16.71-16.74s-7.48-16.74-16.71-16.74-16.7,7.5-16.7,16.74,7.48,16.74,16.7,16.74Z"/>
      <path class="cls-3" d="M170.98,41.35c4.21,0,7.61-7.5,7.61-16.74s-3.41-16.74-7.61-16.74-7.6,7.5-7.6,16.74,3.41,16.74,7.6,16.74Z"/>
      <path class="cls-1" d="M154.27,24.61h33.29"/>
      <path class="cls-1" d="M155.98,16.36h29.88"/>
      <path class="cls-1" d="M155.98,32.87h29.88"/>
      <path class="cls-1" d="M170.98,41.29V7.92"/>
      <path class="cls-5" d="M128.22,7.84c2.34-2.39,5.53-3.58,14.7-4.58,9.17-1,24.58-5.93,26.07,2.96,1.49,8.89-10.18,15.63-15.06,17.55"/>
      <path class="cls-4" d="M128.22,7.84c2.34-2.39,5.53-3.58,14.7-4.58,9.17-1,24.58-5.93,26.07,2.96,1.49,8.89-10.18,15.63-15.06,17.55"/>
      <path class="cls-4" d="M143.7,3.48c1.76,3.54,6.13,5.81,10.29,5.35,4.16-.46,7.78-3.62,8.51-7.44"/>
    </g>
  </g>
</svg>