<?xml version="1.0" encoding="UTF-8"?>
<svg id="Capa_2" data-name="Capa 2" xmlns="http://www.w3.org/2000/svg" viewBox="0 0 147.17 207.69">
  <defs>
    <style>
      .cls-1, .cls-2, .cls-3, .cls-4, .cls-5, .cls-6 {
        stroke: #f5f3ef;
      }

      .cls-1, .cls-5 {
        fill: none;
      }

      .cls-1, .cls-5, .cls-6 {
        stroke-width: 2px;
      }

      .cls-1, .cls-6 {
        stroke-miterlimit: 10;
      }

      .cls-7, .cls-2, .cls-3, .cls-6 {
        fill: #0d0d0d;
      }

      .cls-2 {
        stroke-miterlimit: 4;
        stroke-width: 2px;
      }

      .cls-3 {
        stroke-miterlimit: 4;
        stroke-width: 2px;
      }

      .cls-4 {
        stroke-miterlimit: 4;
        stroke-width: 2px;
      }

      .cls-4, .cls-8 {
        fill: #ff4000;
      }
    </style>
  </defs>
  <g id="Capa_1-2" data-name="Capa 1">
    <g>
      <ellipse class="cls-3" cx="119.93" cy="59.5" rx="17.12" ry="16.58" transform="translate(-.42 .86) rotate(-.41)"/>
      <ellipse class="cls-3" cx="30.26" cy="59.5" rx="17.12" ry="16.58" transform="translate(-.43 .22) rotate(-.41)"/>
      <ellipse class="cls-4" cx="74.58" cy="9.44" rx="7.7" ry="8.44" transform="translate(-.11 .91) rotate(-.7)"/>
      <ellipse class="cls-2" cx="75.09" cy="23.37" rx="16.58" ry="17.12" transform="translate(-3.4 18.46) rotate(-13.71)"/>
      <path class="cls-7" d="M35.37,160.06v.14c.32,17.67,14.61,31.89,32.27,32.08l12.82.14c17.83.2,32.51-13.96,32.99-31.79"/>
      <path class="cls-1" d="M35.37,160.06v.14c.32,17.67,14.61,31.89,32.27,32.08l12.82.14c17.83.2,32.51-13.96,32.99-31.79"/>
      <path class="cls-6" d="M30.1,114.85c-2.93,7.29-2.99,11.68-2.99,11.68-6.89,6.43-8.27,19.76-8.27,19.76l-11.49-.23c1.84-31.71,31.02-45.72,31.02-45.72l1.73.69c-4.39,3.73-7.83,8.47-9.99,13.82Z"/>
      <path class="cls-1" d="M20.8,137.79s-5.51-2.75-12.18-.69"/>
      <path class="cls-1" d="M24.01,130.22s-4.77-4.05-12.05-2.65"/>
      <path class="cls-1" d="M27.92,122.41s-3.98-4.51-11.26-3.11"/>
      <path class="cls-1" d="M30.44,114.6s-3.44-3.57-7.69-2.42"/>
      <path class="cls-6" d="M7.35,146.06l-5.72,11.81c-1.01,2.06-.8,4.52.53,6.4l6.53,9.18c.19.28.63.07.55-.25l-2.75-10.8c-.19-.73-.03-1.52.44-2.11l3.14-4.03c1.15-1.48,3.45-1.18,4.18.55l1.9,4.46c.24.58.26,1.21.04,1.8l-3.77,10.37c-.11.31.28.56.51.32l7.45-7.76c1.47-1.52,2.06-3.68,1.6-5.74l-3.16-13.93-11.49-.22v-.02Z"/>
      <path class="cls-6" d="M117.06,113.97c2.93,7.29,2.99,11.69,2.99,11.69,6.89,6.43,8.27,19.75,8.27,19.75l11.49-.23c-1.84-31.71-31.02-45.72-31.02-45.72l-1.72.69c4.39,3.74,7.83,8.47,9.98,13.82Z"/>
      <path class="cls-1" d="M126.38,136.92s5.51-2.75,12.18-.69"/>
      <path class="cls-1" d="M123.16,129.34s4.78-4.05,12.06-2.65"/>
      <path class="cls-1" d="M119.26,121.53s3.97-4.51,11.26-3.11"/>
      <path class="cls-1" d="M116.73,113.72s3.44-3.57,7.7-2.42"/>
      <path class="cls-6" d="M139.81,145.18l5.73,11.81c1,2.07.8,4.52-.54,6.4l-6.53,9.18c-.2.28-.63.08-.55-.25l2.75-10.8c.19-.73.02-1.52-.45-2.11l-3.13-4.03c-1.15-1.47-3.46-1.17-4.19.55l-1.9,4.46c-.24.58-.26,1.21-.05,1.8l3.77,10.37c.11.32-.29.56-.51.32l-7.45-7.76c-1.46-1.53-2.06-3.69-1.59-5.75l3.16-13.93,11.49-.22v-.02Z"/>
      <path class="cls-7" d="M111.48,101.92c13.66,13.51,12.7,42.83,11.05,58.35-.6,5.74-5.44,10.11-11.21,10.08l-73.5-.18c-5.79,0-10.65-4.43-11.18-10.19-1.55-17.05-2.35-50.29,13.89-58.06"/>
      <path class="cls-1" d="M111.48,101.92c13.66,13.51,12.7,42.83,11.05,58.35-.6,5.74-5.44,10.11-11.21,10.08l-73.5-.18c-5.79,0-10.65-4.43-11.18-10.19-1.55-17.05-2.35-50.29,13.89-58.06"/>
      <path class="cls-6" d="M16.91,61.03c-2.42,15.85,1.91,30.13,7.6,35.38l.75.68c4.51,3.12,9.86,4.8,15.35,4.84l65.2.43c4.11.03,8.16-.92,11.81-2.82,9.73-5.05,24.3-18.11,12.44-48.84,0,0-16.54-36.3-54.1-36.3S19.33,45.18,16.91,61.03Z"/>
      <path class="cls-1" d="M101.19,102.89c9.96,9.52,9.26,30.2,8.06,41.14-.45,4.05-3.97,7.12-8.18,7.11l-53.58-.12c-4.23-.01-7.76-3.13-8.15-7.2-1.13-12.02-1.72-35.46,10.13-40.94"/>
      <path class="cls-8" d="M90.65,57.84c-.75-2.67-2-5.2-3.82-7.76-.04-.06-.11-.08-.18-.06-.06.02-.11.09-.11.16,0,0-.03.37-.39.65-.29.22-.93.32-1.33-.09-.44-.45-.67-1.21-.95-2.16-.25-.85-.57-1.9-1.14-3.05-.93-1.85-2.03-2.71-2.08-2.75-.06-.04-.14-.04-.19,0-.06.04-.09.11-.06.18,0,.01.47,1.55-.42,2.71-.35.46-.9.73-1.53.78-.63.04-1.26-.17-1.63-.55-.93-.94-1.04-2.6-1.03-3.51.06-3.03.98-5.15,1.45-5.84.04-.06.04-.15,0-.2-.04-.06-.12-.08-.19-.05-3.7,1.6-6.38,4.35-7.76,7.92-.27.73-.43,1.5-.57,2.17-.19.96-.36,1.78-.78,2.23-.37.41-.82.55-1.23.39-.36-.14-.6-.5-.61-.91,0-.3.06-.6.22-.87.07-.14.02-.21-.02-.24-.01,0-.12-.09-.23.01-3.25,3.11-5.48,6.81-6.66,11.05-.93,3.35-.91,6.07-.9,7.09v.23c0,4.52,1.72,8.77,4.84,11.97,3.13,3.2,7.27,4.95,11.69,4.95s8.57-1.75,11.69-4.95c3.13-3.2,4.84-7.45,4.84-11.97,0-2.88-.29-5.27-.92-7.51ZM75.04,74.11c-4.72,0-8.56-3.92-8.56-8.76s3.83-8.76,8.56-8.76,8.56,3.92,8.56,8.76-3.83,8.76-8.56,8.76Z"/>
      <path class="cls-5" d="M75.04,201.66c9.8,0,18.67.2,25.11.52,3.21.17,5.83.36,7.65.57.91.11,1.63.23,2.15.35.25.06.5.14.68.24.1.04.22.12.33.22.11.11.25.32.25.6s-.14.49-.25.6c-.11.11-.23.18-.33.23-.19.09-.43.17-.68.23-.52.13-1.24.24-2.15.35-1.82.22-4.43.42-7.65.58-6.43.33-15.31.53-25.11.53s-18.67-.2-25.1-.53c-3.21-.16-5.83-.35-7.65-.58-.91-.11-1.63-.22-2.15-.35-.25-.06-.5-.14-.68-.23-.1-.05-.22-.12-.33-.23-.11-.11-.25-.31-.25-.6s.14-.5.25-.6.23-.18.33-.22c.19-.1.43-.17.68-.24.52-.12,1.24-.24,2.15-.35,1.82-.22,4.43-.41,7.65-.57,6.43-.32,15.3-.52,25.1-.52Z"/>
    </g>
  </g>
</svg>