<svg width="985" height="285" viewBox="0 0 985 285" fill="none" xmlns="http://www.w3.org/2000/svg">
<path d="M960.326 231.575C966.459 231.575 973.646 230.521 979.068 229.239C979.616 229.108 979.999 228.618 979.999 228.055V207.213C979.999 206.413 979.24 205.825 978.464 206.038C975.467 206.854 972.021 207.565 968.003 207.565C957.974 207.565 954.234 204.225 954.234 196.156V154.849H978.399C979.068 154.849 979.607 154.31 979.607 153.64V129.696C979.607 129.026 979.068 128.487 978.399 128.487H954.234V93.6973C954.234 93.0277 953.695 92.4887 953.025 92.4887H923.96C923.29 92.4887 922.751 93.0277 922.751 93.6973V128.487H908.419C907.749 128.487 907.21 129.026 907.21 129.696V153.64C907.21 154.31 907.749 154.849 908.419 154.849H922.751V198.32C922.751 220.149 934.552 231.558 960.318 231.558M833.098 230.203H862.163C862.833 230.203 863.372 229.664 863.372 228.994V180.631C863.372 163.914 871.636 154.865 890.126 154.865H895.41C896.079 154.865 896.618 154.326 896.618 153.657V129.116C896.618 128.446 896.079 127.907 895.41 127.907H890.91C875.965 127.907 867.7 133.812 862.588 146.789L862.4 129.688C862.4 129.026 861.853 128.495 861.191 128.495H833.098C832.428 128.495 831.889 129.034 831.889 129.704V228.986C831.889 229.655 832.428 230.194 833.098 230.194V230.203ZM768.361 210.137C758.333 210.137 752.624 205.417 752.624 198.336C752.624 191.256 758.529 185.948 771.505 185.948C777.206 185.948 782.522 186.928 788.418 189.092V193.42C788.418 203.449 779.958 210.137 768.353 210.137M757.344 232.759C772.093 232.759 782.522 226.462 789.211 215.445L790.485 229.108C790.542 229.729 791.064 230.203 791.685 230.203H817.9C818.57 230.203 819.109 229.664 819.109 228.994V160.566C819.109 139.324 801.795 125.947 774.062 125.947C746.328 125.947 729.21 137.609 726.801 157.266C726.711 157.977 727.283 158.598 728.002 158.598H755.409C755.964 158.598 756.43 158.214 756.577 157.675C758.243 151.582 763.527 148.373 773.269 148.373C783.494 148.373 788.418 152.897 788.418 160.37V171.582C782.122 168.634 773.866 167.254 765.993 167.254C739.639 167.254 722.326 180.827 722.326 201.089C722.326 220.166 737.075 232.759 757.336 232.759M553.987 230.203H583.052C583.722 230.203 584.261 229.664 584.261 228.994V175.323C584.261 158.41 591.341 150.929 602.162 150.929C612.191 150.929 616.911 158.01 616.911 171.778V228.994C616.911 229.664 617.45 230.203 618.12 230.203H647.185C647.854 230.203 648.393 229.664 648.393 228.994V175.519C648.393 158.802 654.886 150.929 665.903 150.929C675.735 150.929 681.052 157.618 681.052 171.582V228.994C681.052 229.664 681.591 230.203 682.26 230.203H711.326C711.995 230.203 712.534 229.664 712.534 228.994V165.686C712.534 142.085 702.702 125.956 677.72 125.956C662.971 125.956 651.954 133.232 644.874 144.837C639.761 131.852 629.333 125.956 614.192 125.956C599.051 125.956 588.426 135.2 583.706 144.053L582.979 129.655C582.946 129.018 582.415 128.512 581.778 128.512H554.036C553.366 128.512 552.828 129.051 552.828 129.72V229.002C552.828 229.672 553.366 230.211 554.036 230.211L553.987 230.203ZM521.313 231.575C527.454 231.575 534.64 230.521 540.063 229.239C540.602 229.108 540.978 228.626 540.978 228.063V207.197C540.978 206.405 540.226 205.825 539.459 206.038C536.453 206.854 533.007 207.573 528.981 207.573C518.952 207.573 515.212 204.233 515.212 196.164V154.857H540.014C540.333 154.857 540.586 154.604 540.586 154.286V129.075C540.586 128.757 540.333 128.504 540.014 128.504H515.212V93.0848C515.212 92.7663 514.959 92.5132 514.64 92.5132H484.318C483.999 92.5132 483.746 92.7663 483.746 93.0848V128.504H468.785C468.466 128.504 468.213 128.757 468.213 129.075V154.286C468.213 154.604 468.466 154.857 468.785 154.857H483.746V198.328C483.746 220.158 495.547 231.566 521.313 231.566M412.533 207.385C398.764 207.385 391.096 197.356 391.096 179.259C391.096 161.162 398.764 151.329 412.533 151.329C426.302 151.329 433.97 161.358 433.97 179.259C433.97 197.16 426.302 207.385 412.533 207.385ZM412.533 232.759C444.595 232.759 465.837 211.125 465.837 180.239V178.271C465.837 147.589 444.595 125.947 412.533 125.947C380.471 125.947 359.229 147.581 359.229 178.271V180.239C359.229 211.117 380.275 232.759 412.533 232.759ZM251.275 230.203H280.34C281.009 230.203 281.548 229.664 281.548 228.994V174.335C281.548 159.39 289.217 151.125 300.626 151.125C312.622 151.125 316.951 159.186 316.951 172.954V228.986C316.951 229.655 317.49 230.194 318.159 230.194H347.224C347.894 230.194 348.433 229.655 348.433 228.986V164.886C348.433 142.264 338.796 125.939 313.031 125.939C296.902 125.939 286.873 134.204 281.753 142.852V93.7055C281.753 93.0358 281.214 92.4969 280.544 92.4969H251.283C250.613 92.4969 250.074 93.0358 250.074 93.7055V228.986C250.074 229.655 250.613 230.194 251.283 230.194L251.275 230.203Z" fill="#0D0D0D"/>
<path d="M100.886 232.84C72.0496 232.84 48.6523 208.912 48.6523 179.406C48.6523 149.9 72.0251 125.972 100.886 125.972C129.747 125.972 153.12 149.9 153.12 179.406C153.12 208.912 129.747 232.84 100.886 232.84ZM195.684 133.845C192.075 121.031 186.856 108.536 179.384 96.1882C179.384 96.1882 172.336 84.5181 169.38 80.982C168.661 80.0673 167.191 81.08 167.746 82.1171C168.587 83.8566 169.339 85.98 168.808 88.087C167.942 90.6268 165.108 92.4153 162.487 91.4924C161.793 91.1984 161.139 90.7901 160.56 90.1858C157.865 87.4091 156.493 82.8358 154.737 77.013C153.169 71.8435 151.25 65.3919 147.738 58.4258C142.062 47.115 135.325 41.872 135.063 41.6515C134.729 41.3902 134.247 41.3902 133.887 41.6515C133.528 41.921 133.381 42.3538 133.528 42.7867C133.553 42.8847 136.386 52.2109 130.931 59.2669C128.767 62.0926 125.451 63.7831 121.597 64.0281C117.726 64.2649 113.904 62.9909 111.592 60.6961C105.892 54.9713 105.222 44.8201 105.337 39.2832C105.696 20.8184 111.274 7.89065 114.189 3.61134C114.451 3.25201 114.434 2.74568 114.14 2.37818C113.855 2.03518 113.397 1.89635 112.989 2.08418C90.4082 11.9005 74.0505 28.6176 65.7123 50.447C61.0002 63.4237 58.9585 69.3445 57.2925 73.0685C55.7572 76.474 54.3362 78.0502 52.8907 78.9158C52.0986 79.3977 51.1104 79.6672 50.1222 79.7162C48.6523 79.5692 41.3676 78.2217 47.7131 66.0371C48.2439 65.0244 46.8474 63.9872 46.0798 64.8284L41.0736 70.3409C40.8531 70.5859 40.6163 70.8227 40.3958 71.0677L39.5546 71.9905C39.4076 72.162 39.2933 72.3009 39.1708 72.4724C23.3929 90.5043 12.3598 113.559 6.00611 134.898C0.322139 155.429 -0.0453586 171.787 0.00364121 178.026V179.406C0.00364121 206.977 10.4896 232.881 29.5587 252.391C48.6033 271.869 73.9525 282.624 100.886 282.624C127.82 282.624 153.169 271.893 172.213 252.391C191.258 232.889 201.768 206.977 201.768 179.398C201.768 161.823 199.506 147.524 195.684 133.836" fill="#FF4000"/>
</svg>
