<?xml version="1.0" encoding="UTF-8"?>
<svg id="Capa_2" data-name="Capa 2" xmlns="http://www.w3.org/2000/svg" xmlns:xlink="http://www.w3.org/1999/xlink" viewBox="0 0 465.26 100.91">
  <defs>
    <style>
      .cls-1 {
        fill: url(#Degradado_sin_nombre_18-4);
      }

      .cls-2 {
        fill: url(#Degradado_sin_nombre_18-5);
      }

      .cls-3 {
        fill: url(#Degradado_sin_nombre_18-6);
      }

      .cls-4 {
        fill: url(#Degradado_sin_nombre_18-7);
      }

      .cls-5 {
        fill: url(#Degradado_sin_nombre_18-2);
      }

      .cls-6 {
        fill: url(#Degradado_sin_nombre_18-3);
      }

      .cls-7 {
        fill: url(#Degradado_sin_nombre_18);
      }
    </style>
    <linearGradient id="Degradado_sin_nombre_18" data-name="Degradado sin nombre 18" x1="38.25" y1="12.45" x2="40.31" y2="104.49" gradientUnits="userSpaceOnUse">
      <stop offset="0" stop-color="#d6d6d6"/>
      <stop offset=".25" stop-color="#b3b3b3"/>
      <stop offset=".79" stop-color="#5c5c5c"/>
      <stop offset="1" stop-color="#393939"/>
    </linearGradient>
    <linearGradient id="Degradado_sin_nombre_18-2" data-name="Degradado sin nombre 18" x1="237.29" y1="8" x2="239.34" y2="100.04" xlink:href="#Degradado_sin_nombre_18"/>
    <linearGradient id="Degradado_sin_nombre_18-3" data-name="Degradado sin nombre 18" x1="268.27" y1="7.31" x2="270.33" y2="99.35" xlink:href="#Degradado_sin_nombre_18"/>
    <linearGradient id="Degradado_sin_nombre_18-4" data-name="Degradado sin nombre 18" x1="357.72" y1="5.31" x2="359.78" y2="97.35" xlink:href="#Degradado_sin_nombre_18"/>
    <linearGradient id="Degradado_sin_nombre_18-5" data-name="Degradado sin nombre 18" x1="429.53" y1="3.7" x2="431.59" y2="95.74" xlink:href="#Degradado_sin_nombre_18"/>
    <linearGradient id="Degradado_sin_nombre_18-6" data-name="Degradado sin nombre 18" x1="129.05" y1="10.42" x2="131.11" y2="102.46" xlink:href="#Degradado_sin_nombre_18"/>
    <linearGradient id="Degradado_sin_nombre_18-7" data-name="Degradado sin nombre 18" x1="136.52" y1="10.25" x2="138.58" y2="102.29" xlink:href="#Degradado_sin_nombre_18"/>
  </defs>
  <g id="Capa_1-2" data-name="Capa 1">
    <g>
      <polygon class="cls-7" points="57.63 97.9 20.53 38.89 20.53 97.9 0 97.9 0 3.02 21.18 3.02 57.68 60.76 57.68 3.02 78.21 3.02 78.21 97.9 57.63 97.9"/>
      <polygon class="cls-5" points="194.03 97.9 194.76 3.02 216.69 3.02 215.24 65.18 258.94 3.02 282.44 3.02 214.23 97.9 194.03 97.9"/>
      <polygon class="cls-6" points="295.32 97.9 294.94 71.2 294.97 61.03 294.62 33.28 272.19 63.57 264.89 73.63 246.88 97.9 223.6 97.9 294.88 3.02 314.77 3.02 316.99 97.9 295.32 97.9"/>
      <path class="cls-1" d="M334.68,91.78c-6.22-5.28-9.55-12.57-10-21.87h13.69c.54,5.99,2.64,10.58,6.31,13.75,3.67,3.18,8.67,4.76,15.03,4.76,5.9,0,10.75-1.52,14.56-4.56,3.8-3.04,5.7-7.11,5.7-12.21v-1.74c0-5.01-1.79-8.9-5.37-11.67-3.58-2.77-8.23-4.16-13.96-4.16h-5.59v-10.6h5.46c4.92,0,8.99-1.3,12.21-3.89,3.22-2.59,4.83-6.17,4.83-10.73v-1.74c0-4.47-1.63-8.07-4.9-10.8-3.27-2.73-7.49-4.09-12.68-4.09-5.99,0-10.73,1.63-14.22,4.9-3.49,3.27-5.37,7.81-5.64,13.62h-13.15c.27-5.9,1.81-11.07,4.63-15.5,2.82-4.43,6.69-7.87,11.61-10.33,4.92-2.46,10.47-3.69,16.64-3.69,5.81,0,11.05,1.05,15.7,3.15,4.65,2.1,8.3,5.08,10.94,8.92,2.64,3.85,3.96,8.23,3.96,13.15v1.34c0,5.01-1.48,9.33-4.43,12.95-2.95,3.62-6.66,6.2-11.14,7.72,5.55,1.34,10.06,3.96,13.55,7.85,3.49,3.89,5.23,8.74,5.23,14.56v1.48c0,5.37-1.43,10.13-4.29,14.29-2.87,4.16-6.89,7.38-12.08,9.66-5.19,2.28-11.09,3.42-17.71,3.42-10.38,0-18.67-2.64-24.89-7.92Z"/>
      <path class="cls-2" d="M404.88,87.02c-5.99-8.45-8.99-20.19-8.99-35.22v-2.68c0-14.94,3.02-26.65,9.06-35.15,6.04-8.5,14.56-12.75,25.56-12.75s19.88,4.23,25.83,12.68c5.95,8.45,8.92,20.19,8.92,35.22v2.68c0,15.21-2.95,26.99-8.85,35.36-5.9,8.37-14.54,12.54-25.9,12.54s-19.64-4.23-25.63-12.68ZM446.21,79.51c3.4-5.86,5.1-14.87,5.1-27.04v-4.03c0-12.16-1.72-21.18-5.16-27.04-3.45-5.86-8.66-8.79-15.63-8.79-13.78,0-20.66,11.94-20.66,35.82v4.03c0,23.88,6.89,35.82,20.66,35.82,7.06,0,12.3-2.93,15.7-8.79Z"/>
      <g>
        <polygon class="cls-3" points="142.67 51.98 168.86 49.18 142.5 46.37 159.15 25.74 138.52 42.39 135.71 16.03 132.96 41.79 89.94 3.32 128.47 46.35 102.55 49.18 128.79 52.05 112.26 72.63 132.84 56.1 135.71 82.34 138.58 55.99 159.28 72.63 142.67 51.98"/>
        <path class="cls-4" d="M137.42,100.91c-27.82,0-50.46-22.63-50.46-50.46l.07-1.87,1.75-.05h6.63v1.93c0,23.16,18.84,42,42.01,42s42.01-18.85,42.01-42.01-18.85-42.01-42.01-42.01h-.35s-1.82.02-1.82.02V.02l1.91-.02c.09,0,.17,0,.26,0,27.82,0,50.46,22.63,50.46,50.46s-22.63,50.46-50.46,50.46Z"/>
      </g>
    </g>
  </g>
</svg>